<svg xmlns="http://www.w3.org/2000/svg" viewBox="0 0 266.47 151.06"><title>logo</title><path d="M15.77,90.3v14.76a6.41,6.41,0,0,1-6.41,6.34H0V61H9.36a6.4,6.4,0,0,1,6.41,6.33V82.09a4.31,4.31,0,0,1-2.95,4.11A4.3,4.3,0,0,1,15.77,90.3ZM10.58,68.77a2.43,2.43,0,0,0-2.66-2.59H5.11V83.82H7.92c1.37,0,2.66-.65,2.66-2.95Zm0,22.68c0-2.23-1.29-2.88-2.66-2.88H5.11v17.72H7.92a2.45,2.45,0,0,0,2.66-2.67Z" style="fill:#b3a076"/><path d="M48,61a2,2,0,0,1,2.09,2V111.4H46.44c-1.22,0-1.44-.72-1.51-1.08V61Z" style="fill:#b3a076"/><path d="M89.86,73.67V67.84a2.74,2.74,0,1,0-5.48,0v4.82c0,3,2.24,6.77,2.24,6.77l6.19,11.66a16.15,16.15,0,0,1,2.3,8v6.41a6.44,6.44,0,0,1-6.48,6.4H85.39a6.53,6.53,0,0,1-6.26-6.4v-5.19a3,3,0,0,1,1.44-2.81c.43-.14,2.52-1.08,3.81-1.65v8.78a2.74,2.74,0,1,0,5.48-.07V98.8c0-3-2.24-6.84-2.24-6.84L81.43,80.37a16.15,16.15,0,0,1-2.3-8V67.19a6.69,6.69,0,0,1,6.48-6.7h3.24a6.7,6.7,0,0,1,6.26,6.7v1.94a3,3,0,0,1-1.44,2.81C93.24,72.16,91.22,73.09,89.86,73.67Z" style="fill:#b3a076"/><path d="M132.41,60.49a6.49,6.49,0,0,1,6.26,6.41v38.67a6.47,6.47,0,0,1-6.26,6.33h-4a6.51,6.51,0,0,1-6.48-6.33V66.9a6.44,6.44,0,0,1,6.48-6.41Zm-1.73,46.88a2.76,2.76,0,0,0,2.74-2.81V67.84A2.75,2.75,0,0,0,130.68,65h-.79a2.85,2.85,0,0,0-2.74,2.81v36.72a2.85,2.85,0,0,0,2.74,2.81Z" style="fill:#b3a076"/><path d="M181.8,111.4h-2.38c-2.81,0-3.24-2.23-3.45-3.24l-5.55-24.91V111.4h-5.18V61h2.37c2.88,0,3.39,1.36,3.68,2.8L176.61,90V61h5.19Z" style="fill:#b3a076"/><path d="M225.14,64.74a2.72,2.72,0,0,1-2.73,1.37h-4a1.32,1.32,0,0,0-1.29,1.22V111.4h-3.67c-1.23,0-1.44-.72-1.44-1.08V66.11h-7.28V62.58A1.6,1.6,0,0,1,206.28,61h20.59Z" style="fill:#b3a076"/><path d="M266.47,106.29c-.58,1.29-1.44,3.31-1.66,3.74a2.92,2.92,0,0,1-2.8,1.37H250.48v-49A1.58,1.58,0,0,1,252.07,61h13.46l-1.72,3.74a2.75,2.75,0,0,1-2.74,1.44h-4.18a1.17,1.17,0,0,0-1.22,1.22v15h7.78c-.58,1.3-1.44,3.39-1.66,3.82a2.8,2.8,0,0,1-2.74,1.37h-2.16a1.25,1.25,0,0,0-1.22,1.22v17.5Z" style="fill:#b3a076"/><polygon points="130.81 150.5 72.24 120.79 57.77 54.03 98.31 0.5 163.32 0.5 203.86 54.03 189.39 120.79 130.81 150.5" style="fill:none;stroke:#b3a076;stroke-miterlimit:10"/><line x1="72.44" y1="120.5" x2="163.44" y2="0.5" style="fill:none;stroke:#b3a076;stroke-miterlimit:10"/><line x1="98.44" y1="0.5" x2="189.44" y2="120.5" style="fill:none;stroke:#b3a076;stroke-miterlimit:10"/><line x1="130.44" y1="150.5" x2="203.44" y2="54.5" style="fill:none;stroke:#b3a076;stroke-miterlimit:10"/><line x1="57.44" y1="54.5" x2="130.44" y2="150.5" style="fill:none;stroke:#b3a076;stroke-miterlimit:10"/><line x1="203.44" y1="54.5" x2="57.44" y2="54.5" style="fill:none;stroke:#b3a076;stroke-miterlimit:10"/><line x1="98.44" y1="0.5" x2="130.44" y2="150.5" style="fill:none;stroke:#b3a076;stroke-miterlimit:10"/><line x1="163.44" y1="0.5" x2="130.44" y2="150.5" style="fill:none;stroke:#b3a076;stroke-miterlimit:10"/></svg>